<?xml version="1.0" encoding="utf-8"?>
<!-- Generator: Adobe Illustrator 19.0.0, SVG Export Plug-In . SVG Version: 6.00 Build 0)  -->
<svg version="1.1" id="Layer_1" xmlns="http://www.w3.org/2000/svg" xmlns:xlink="http://www.w3.org/1999/xlink" x="0px" y="0px"
	 viewBox="-35 26 28 49" style="enable-background:new -35 26 28 49;" xml:space="preserve">
<style type="text/css">
	.st0{fill:#0E101E;}
	.st1{fill:#242447;}
</style>
<rect x="-500" y="482" class="st0" width="28" height="49"/>
<polygon class="st1" points="-486,491.3 -473,498.8 -473,513.8 -486,521.3 -499,513.8 -499,498.8 "/>
<polygon class="st1" points="-500,497 -487,489.5 -487,482 -489,482 -489,488.4 -500,494.7 -500,497 "/>
<polygon class="st1" points="-500,515.5 -487,523 -487,531 -489,531 -489,524.1 -500,517.8 -500,515.5 "/>
<polygon class="st1" points="-485,482 -485,489.5 -472,497 -472,497 -472,494.7 -472,494.7 -483,488.4 -483,482 "/>
<polygon class="st1" points="-485,531 -485,523 -472,515.5 -472,515.5 -472,517.8 -472,517.8 -483,524.1 -483,531 -485,531 "/>
</svg>
