<?xml version="1.0" encoding="utf-8"?>
<!-- Generator: Adobe Illustrator 19.0.0, SVG Export Plug-In . SVG Version: 6.00 Build 0)  -->
<svg version="1.1" id="Layer_1" xmlns="http://www.w3.org/2000/svg" xmlns:xlink="http://www.w3.org/1999/xlink" x="0px" y="0px"
	 viewBox="464 -10 1888 580" style="enable-background:new 464 -10 1888 580;" xml:space="preserve">
<style type="text/css">
	.st0{fill:#78E3EC;}
</style>
<g>
	<path class="st0" d="M544.6,112.9c2.3,0.3,4.4,0.9,6.2,1.7c1.8,0.8,3.6,2,5.3,3.6c1.7,1.5,3.6,3.6,5.8,6.2L721,325.7
		c-0.6-6.4-1.1-12.7-1.4-18.7c-0.3-6.1-0.5-11.8-0.5-17.1V112.6h68.5v335.1h-40.5c-6,0-11-0.9-15.2-2.8c-4.2-1.9-8.1-5.2-12-10.1
		l-158-199.6c0.5,5.8,0.8,11.5,1.2,17.1c0.3,5.6,0.5,10.8,0.5,15.8v179.6h-68.5V112.6H536C539.5,112.4,542.3,112.7,544.6,112.9z"/>
	<path class="st0" d="M1173.6,279.9c0,24.2-4.2,46.8-12.5,67.6c-8.4,20.9-20.1,39-35.3,54.4c-15.2,15.4-33.5,27.5-54.9,36.2
		s-45.1,13.1-71.2,13.1c-26.1,0-49.8-4.4-71.3-13.1s-39.8-20.8-55.1-36.2c-15.3-15.4-27.1-33.5-35.4-54.4
		c-8.4-20.9-12.5-43.4-12.5-67.6s4.2-46.8,12.5-67.6c8.4-20.9,20.2-38.9,35.4-54.3c15.3-15.3,33.6-27.4,55.1-36.1
		s45.2-13.1,71.3-13.1s49.8,4.4,71.2,13.2c21.4,8.8,39.7,20.9,54.9,36.2c15.2,15.3,26.9,33.4,35.3,54.3
		C1169.5,233.3,1173.6,255.8,1173.6,279.9z M1094.1,279.9c0-16.6-2.1-31.5-6.4-44.7c-4.3-13.3-10.5-24.5-18.5-33.7
		c-8.1-9.2-17.9-16.3-29.6-21.2c-11.7-4.9-24.9-7.4-39.8-7.4c-15,0-28.4,2.5-40.1,7.4s-21.6,12-29.7,21.2
		c-8,9.2-14.2,20.4-18.5,33.7c-4.3,13.3-6.4,28.2-6.4,44.7c0,16.7,2.1,31.7,6.4,45s10.5,24.5,18.5,33.7c8.1,9.2,17.9,16.2,29.7,21
		c11.8,4.8,25.1,7.2,40.1,7.2c14.9,0,28.1-2.4,39.8-7.2c11.7-4.8,21.5-11.8,29.6-21c8-9.2,14.2-20.4,18.5-33.7
		C1091.9,311.7,1094.1,296.7,1094.1,279.9z"/>
	<path class="st0" d="M1436.1,360.8c1.8,0,3.7,0.3,5.5,1c1.8,0.7,3.6,1.9,5.3,3.6l30.8,32.4c-13.5,17.6-30.4,30.9-50.7,39.9
		c-20.3,9-44.4,13.5-72.1,13.5c-25.5,0-48.3-4.3-68.4-13c-20.2-8.7-37.3-20.6-51.3-35.9s-24.8-33.3-32.3-54.3
		c-7.5-20.9-11.3-43.7-11.3-68.2c0-25,4.3-48,12.9-68.9c8.6-20.9,20.6-39,36-54.2s33.8-27,55.3-35.4s45.2-12.6,71.1-12.6
		c12.6,0,24.4,1.1,35.5,3.3c11.1,2.2,21.5,5.3,31.2,9.2c9.7,3.9,18.6,8.6,26.7,14s15.3,11.5,21.6,18.1l-26.2,35.2
		c-1.7,2.1-3.7,4.1-6,5.9c-2.3,1.8-5.5,2.6-9.7,2.6c-2.8,0-5.4-0.6-7.8-1.8c-2.5-1.2-5.1-2.7-7.8-4.5c-2.8-1.8-5.8-3.7-9.1-5.8
		c-3.3-2.1-7.2-4-11.7-5.8s-9.8-3.3-15.9-4.5s-13.1-1.8-21.3-1.8c-14.1,0-27,2.5-38.6,7.5c-11.7,5-21.7,12.1-30,21.4
		c-8.4,9.3-14.9,20.5-19.5,33.7c-4.7,13.2-7,28-7,44.4c0,17.2,2.3,32.4,7,45.8c4.7,13.3,11,24.6,19.1,33.7s17.4,16.1,28.2,20.8
		c10.7,4.8,22.2,7.1,34.5,7.1c7.1,0,13.5-0.3,19.3-1c5.8-0.7,11.2-1.9,16.2-3.6s9.7-3.9,14.3-6.6c4.5-2.7,9.1-6,13.7-10
		c1.8-1.5,3.8-2.8,6-3.8C1431.5,361.3,1433.8,360.8,1436.1,360.8z"/>
	<path class="st0" d="M1843.9,279.9c0,24.2-4.2,46.8-12.5,67.6c-8.4,20.9-20.1,39-35.3,54.4s-33.5,27.5-54.9,36.2
		s-45.1,13.1-71.2,13.1s-49.8-4.4-71.3-13.1s-39.8-20.8-55.1-36.2c-15.3-15.4-27.1-33.5-35.4-54.4c-8.4-20.9-12.5-43.4-12.5-67.6
		s4.2-46.8,12.5-67.6c8.4-20.9,20.2-38.9,35.4-54.3c15.3-15.3,33.6-27.4,55.1-36.1s45.2-13.1,71.3-13.1c26.1,0,49.8,4.4,71.2,13.2
		c21.4,8.8,39.7,20.9,54.9,36.2c15.2,15.3,26.9,33.4,35.3,54.3C1839.7,233.3,1843.9,255.8,1843.9,279.9z M1764.3,279.9
		c0-16.6-2.1-31.5-6.4-44.7c-4.3-13.3-10.5-24.5-18.5-33.7s-17.9-16.3-29.6-21.2c-11.7-4.9-24.9-7.4-39.8-7.4
		c-15,0-28.4,2.5-40.1,7.4s-21.6,12-29.7,21.2c-8,9.2-14.2,20.4-18.5,33.7c-4.3,13.3-6.4,28.2-6.4,44.7c0,16.7,2.1,31.7,6.4,45
		s10.5,24.5,18.5,33.7s17.9,16.2,29.7,21c11.7,4.8,25.1,7.2,40.1,7.2c14.9,0,28.1-2.4,39.8-7.2c11.7-4.8,21.5-11.8,29.6-21
		s14.2-20.4,18.5-33.7C1762.1,311.7,1764.3,296.7,1764.3,279.9z"/>
	<path class="st0" d="M1966.2,447.5H1888V112.4h78.2V447.5z"/>
	<path class="st0" d="M2077.8,112.9c2.3,0.3,4.4,0.9,6.2,1.7c1.8,0.8,3.6,2,5.3,3.6c1.7,1.5,3.6,3.6,5.8,6.2l159.2,201.2
		c-0.6-6.4-1.1-12.7-1.4-18.7c-0.3-6.1-0.5-11.8-0.5-17.1V112.5h68.5v335.1h-40.5c-6,0-11-0.9-15.2-2.8s-8.1-5.2-12-10.1l-158-199.6
		c0.5,5.8,0.8,11.5,1.1,17.1s0.5,10.8,0.5,15.8v179.6h-68.5V112.5h40.9C2072.6,112.4,2075.5,112.7,2077.8,112.9z"/>
</g>
</svg>
